Coordinates
version=1
nRows=16
nColumns=40
inDegrees=yes

Units are S.I. units (second, meters, Newtons, ...)
If the header above contains a line with 'inDegrees', this indicates whether rotational values are in degrees (yes) or radians (no).

endheader
time	pelvis_tilt	pelvis_list	pelvis_rotation	pelvis_tx	pelvis_ty	pelvis_tz	hip_flexion_r	hip_adduction_r	hip_rotation_r	knee_angle_r	knee_angle_r_beta	ankle_angle_r	subtalar_angle_r	mtp_angle_r	hip_flexion_l	hip_adduction_l	hip_rotation_l	knee_angle_l	knee_angle_l_beta	ankle_angle_l	subtalar_angle_l	mtp_angle_l	lumbar_extension	lumbar_bending	lumbar_rotation	arm_flex_r	arm_add_r	arm_rot_r	elbow_flex_r	pro_sup_r	wrist_flex_r	wrist_dev_r	arm_flex_l	arm_add_l	arm_rot_l	elbow_flex_l	pro_sup_l	wrist_flex_l	wrist_dev_l
      0.00500000	     -5.26028530	     10.60399694	      4.22522991	     -0.79874226	      0.88951457	      0.22649467	     37.08160561	    -16.00665627	    -16.31940492	      7.72338292	      0.13479846	      3.50308259	      6.64937262	      0.00000000	    -12.89837051	      8.44454455	    -17.60438857	     10.75333288	      0.18768106	      9.36045441	     19.44549086	      0.00000000	      3.58365960	     -9.10956316	      5.89424869	     38.67021755	    -15.24143008	     38.67021755	     77.54592010	     44.06434507	      0.00000000	      0.00000000	     38.67021755	    -15.24143008	     38.67021755	     77.54592010	     44.06434507	      0.00000000	      0.00000000
      0.01000000	     -5.25075445	     10.56841345	      4.27420049	     -0.79395800	      0.88911795	      0.22693006	     36.98225628	    -15.97407568	    -16.15299402	      7.87433052	      0.13743299	      3.40646537	      6.61878182	      0.00000000	    -13.14726912	      8.29934754	    -17.50554829	     10.88945503	      0.19005684	      9.21385179	     19.40759094	      0.00000000	      3.62383743	     -9.08554236	      5.88857327	     38.67080518	    -15.24139313	     38.67080518	     77.54515642	     44.06512300	      0.00000000	      0.00000000	     38.67080518	    -15.24139313	     38.67080518	     77.54515642	     44.06512300	      0.00000000	      0.00000000
      0.01500000	     -5.04875466	     10.44928458	      4.36367455	     -0.78868587	      0.88910845	      0.22722195	     36.72349641	    -15.93372814	    -16.21525177	      8.27791160	      0.14447681	      3.29850996	      5.93939215	      0.00000000	    -13.54219581	      8.00550785	    -17.49179295	     11.20293564	      0.19552811	      8.64543528	     19.14655217	      0.00000000	      3.28423859	     -8.80743628	      5.73741350	     38.67471502	    -15.24114724	     38.67471502	     77.54007300	     44.07029532	      0.00000000	      0.00000000	     38.67471502	    -15.24114724	     38.67471502	     77.54007300	     44.07029532	      0.00000000	      0.00000000
      0.02000000	     -4.92812144	     10.33476777	      4.49496018	     -0.78276852	      0.88894888	      0.22754509	     36.45910435	    -15.89046715	    -16.16064244	      8.57248558	      0.14961810	      3.17255666	      5.47919205	      0.00000000	    -13.90100929	      7.70961239	    -17.39399712	     11.48428192	      0.20043853	      8.30176973	     19.02296423	      0.00000000	      3.20895658	     -8.55319261	      5.60439749	     38.67767893	    -15.24096091	     38.67767893	     77.53622384	     44.07420081	      0.00000000	      0.00000000	     38.67767893	    -15.24096091	     38.67767893	     77.53622384	     44.07420081	      0.00000000	      0.00000000
      0.02500000	     -4.37144869	      9.35566326	      5.11679367	     -0.77606582	      0.89028191	      0.22660217	     34.90994188	    -15.17471109	    -16.53129794	      7.91126483	      0.13807762	      2.62135756	      3.96303294	      0.00000000	    -14.61730060	      6.31008270	    -17.10728256	     11.95248675	      0.20861025	      8.05173214	     19.19995833	      0.00000000	      2.45466554	     -7.14381313	      4.64477293	     38.70994231	    -15.23893527	     38.70994231	     77.49452316	     44.11597900	      0.00000000	      0.00000000	     38.70994231	    -15.23893527	     38.70994231	     77.49452316	     44.11597900	      0.00000000	      0.00000000
      0.03000000	     -4.30158397	      9.25135019	      5.17519618	     -0.76924165	      0.88995985	      0.22725492	     34.76328654	    -15.09784959	    -16.47325997	      8.36654130	      0.14602369	      2.40530451	      3.59220329	      0.00000000	    -14.91965285	      6.00771555	    -17.08266854	     12.32197766	      0.21505908	      7.51010009	     18.99834797	      0.00000000	      2.41717117	     -6.98870464	      4.51701242	     38.71338727	    -15.23871948	     38.71338727	     77.49010552	     44.12031715	      0.00000000	      0.00000000	     38.71338727	    -15.23871948	     38.71338727	     77.49010552	     44.12031715	      0.00000000	      0.00000000
      0.03500000	     -4.30056653	      9.16864978	      5.23378695	     -0.76192822	      0.88951085	      0.22796285	     34.58620442	    -15.01267834	    -16.19436410	      8.66030156	      0.15115078	      2.22233528	      3.55618497	      0.00000000	    -15.22632164	      5.75916293	    -16.88327221	     12.57646795	      0.21950077	      7.26269284	     18.95729303	      0.00000000	      2.54974281	     -6.94897929	      4.49690286	     38.71397554	    -15.23868266	     38.71397554	     77.48935265	     44.12105435	      0.00000000	      0.00000000	     38.71397554	    -15.23868266	     38.71397554	     77.48935265	     44.12105435	      0.00000000	      0.00000000
      0.04000000	     -4.11746975	      8.89849089	      5.31784655	     -0.75447746	      0.88950591	      0.22867582	     34.36975401	    -14.81747958	    -16.44039424	      9.42087592	      0.16442530	      1.90285702	      2.51374326	      0.00000000	    -15.52938712	      5.19498545	    -17.05372016	     13.21958913	      0.23072536	      6.30639734	     18.45933142	      0.00000000	      2.28987934	     -6.48393317	      4.18402274	     38.71812828	    -15.23842265	     38.71812828	     77.48403584	     44.12625395	      0.00000000	      0.00000000	     38.71812828	    -15.23842265	     38.71812828	     77.48403584	     44.12625395	      0.00000000	      0.00000000
      0.04500000	     -3.53587200	      7.75753707	      5.92122108	     -0.74634732	      0.89083417	      0.22793805	     32.80835131	    -13.87167688	    -16.90147132	      8.91060897	      0.15551946	      1.12720262	      0.89841268	      0.00000000	    -16.13988999	      3.50703322	    -17.10492751	     14.01999104	      0.24469500	      5.89130798	     18.75051022	      0.00000000	      1.72802839	     -5.02738062	      2.84388268	     38.75532659	    -15.23609803	     38.75532659	     77.43672857	     44.17171661	      0.00000000	      0.00000000	     38.75532659	    -15.23609803	     38.75532659	     77.43672857	     44.17171661	      0.00000000	      0.00000000
      0.05000000	     -3.43488435	      7.57419737	      5.89076893	     -0.73837869	      0.89067149	      0.22901269	     32.63570428	    -13.66463851	    -16.89334514	      9.51876479	      0.16613379	      0.67915639	      0.50548376	      0.00000000	    -16.43365809	      3.09718102	    -17.14572853	     14.51663821	      0.25336313	      5.01130505	     18.27438841	      0.00000000	      1.72476945	     -4.83089778	      2.69798415	     38.75835335	    -15.23590931	     38.75835335	     77.43290940	     44.17531480	      0.00000000	      0.00000000	     38.75835335	    -15.23590931	     38.75835335	     77.43290940	     44.17531480	      0.00000000	      0.00000000
      0.05500000	     -3.18044761	      6.92037133	      6.19017511	     -0.73007306	      0.89116059	      0.22927808	     31.96495312	    -13.11883007	    -17.22437913	      9.81450181	      0.17129537	      0.14556007	     -0.51682585	      0.00000000	    -16.75509616	      2.06896989	    -17.08099077	     15.22752676	      0.26577048	      4.36399199	     17.85127322	      0.00000000	      1.50968803	     -3.98698653	      2.03230586	     38.77714300	    -15.23473892	     38.77714300	     77.40928174	     44.19737114	      0.00000000	      0.00000000	     38.77714300	    -15.23473892	     38.77714300	     77.40928174	     44.19737114	      0.00000000	      0.00000000
      0.06000000	     -2.77929564	      6.14132762	      6.45424851	     -0.72159193	      0.89197817	      0.22954615	     31.03555134	    -12.38682466	    -17.59613211	      9.88041702	      0.17244581	     -0.67024071	     -1.37541316	      0.00000000	    -17.20350032	      0.88412940	    -17.13028983	     15.95811806	      0.27852170	      3.47732198	     17.51585044	      0.00000000	      1.22816822	     -3.03588512	      1.20465260	     38.80655767	    -15.23291100	     38.80655767	     77.37259467	     44.23090593	      0.00000000	      0.00000000	     38.80655767	    -15.23291100	     38.80655767	     77.37259467	     44.23090593	      0.00000000	      0.00000000
      0.06500000	     -2.62971642	      5.88102669	      6.30502680	     -0.71325671	      0.89208941	      0.23099533	     30.83297496	    -12.04084787	    -17.61512156	     10.56009785	      0.18430848	     -1.24031596	     -1.71731431	      0.00000000	    -17.47878472	      0.40557755	    -17.27284080	     16.55567103	      0.28895097	      2.33971511	     16.83243485	      0.00000000	      1.18438267	     -2.81186302	      1.05267758	     38.80952860	    -15.23272675	     38.80952860	     77.36891464	     44.23421203	      0.00000000	      0.00000000	     38.80952860	    -15.23272675	     38.80952860	     77.36891464	     44.23421203	      0.00000000	      0.00000000
      0.07000000	     -2.46331549	      5.54968005	      6.17444987	     -0.70483742	      0.89234924	      0.23238686	     30.59530779	    -11.64044549	    -17.69432745	     11.26289395	      0.19657458	     -1.82365671	     -2.14971390	      0.00000000	    -17.71639364	     -0.15761617	    -17.41746439	     17.24815889	      0.30103716	      1.16866569	     16.04184681	      0.00000000	      1.12988952	     -2.47447922	      0.85398588	     38.81220305	    -15.23256094	     38.81220305	     77.36560535	     44.23717718	      0.00000000	      0.00000000	     38.81220305	    -15.23256094	     38.81220305	     77.36560535	     44.23717718	      0.00000000	      0.00000000
      0.07500000	     -2.26395778	      5.04727661	      6.10223124	     -0.69638609	      0.89278715	      0.23365970	     30.27544567	    -11.09369251	    -17.89225447	     11.93640641	      0.20832959	     -2.39628880	     -2.74688691	      0.00000000	    -17.90011902	     -0.93509211	    -17.55801520	     18.07847534	      0.31552892	      0.03252197	     15.11875371	      0.00000000	      1.01376251	     -1.90869235	      0.53970129	     38.81635774	    -15.23230344	     38.81635774	     77.36047028	     44.24176396	      0.00000000	      0.00000000	     38.81635774	    -15.23230344	     38.81635774	     77.36047028	     44.24176396	      0.00000000	      0.00000000
      0.08000000	     -2.03191326	      4.51738346	      6.01616968	     -0.68789658	      0.89339617	      0.23493359	     29.88994570	    -10.51008287	    -18.06730836	     12.55447576	      0.21911694	     -3.03241425	     -3.25514478	      0.00000000	    -18.08033352	     -1.74488140	    -17.75633992	     18.95895242	      0.33089614	     -1.23162269	     14.18293233	      0.00000000	      0.90179602	     -1.32226837	      0.22269642	     38.82025227	    -15.23206216	     38.82025227	     77.35566406	     44.24604038	      0.00000000	      0.00000000	     38.82025227	    -15.23206216	     38.82025227	     77.35566406	     44.24604038	      0.00000000	      0.00000000
